<svg width="19" height="19" viewBox="0 0 19 19" fill="none" xmlns="http://www.w3.org/2000/svg">
<path d="M12.5381 6.125C12.5381 5.97582 12.5974 5.83274 12.7029 5.72725C12.8084 5.62176 12.9515 5.5625 13.1006 5.5625H15.3506C15.4998 5.5625 15.6429 5.62176 15.7484 5.72725C15.8539 5.83274 15.9131 5.97582 15.9131 6.125C15.9131 6.27418 15.8539 6.41726 15.7484 6.52275C15.6429 6.62824 15.4998 6.6875 15.3506 6.6875H13.1006C12.9515 6.6875 12.8084 6.62824 12.7029 6.52275C12.5974 6.41726 12.5381 6.27418 12.5381 6.125ZM2.97565 6.6875H10.2881V7.8125C10.2881 7.96168 10.3474 8.10476 10.4529 8.21025C10.5584 8.31574 10.7015 8.375 10.8506 8.375C10.9998 8.375 11.1429 8.31574 11.2484 8.21025C11.3539 8.10476 11.4131 7.96168 11.4131 7.8125V4.4375C11.4131 4.28832 11.3539 4.14524 11.2484 4.03975C11.1429 3.93426 10.9998 3.875 10.8506 3.875C10.7015 3.875 10.5584 3.93426 10.4529 4.03975C10.3474 4.14524 10.2881 4.28832 10.2881 4.4375V5.5625H2.97565C2.82646 5.5625 2.68339 5.62176 2.5779 5.72725C2.47241 5.83274 2.41315 5.97582 2.41315 6.125C2.41315 6.27418 2.47241 6.41726 2.5779 6.52275C2.68339 6.62824 2.82646 6.6875 2.97565 6.6875ZM15.3506 12.3125H8.60065C8.45146 12.3125 8.30839 12.3718 8.2029 12.4773C8.09741 12.5827 8.03815 12.7258 8.03815 12.875C8.03815 13.0242 8.09741 13.1673 8.2029 13.2727C8.30839 13.3782 8.45146 13.4375 8.60065 13.4375H15.3506C15.4998 13.4375 15.6429 13.3782 15.7484 13.2727C15.8539 13.1673 15.9131 13.0242 15.9131 12.875C15.9131 12.7258 15.8539 12.5827 15.7484 12.4773C15.6429 12.3718 15.4998 12.3125 15.3506 12.3125ZM6.35065 10.625C6.20146 10.625 6.05839 10.6843 5.9529 10.7898C5.84741 10.8952 5.78815 11.0383 5.78815 11.1875V12.3125H2.97565C2.82646 12.3125 2.68339 12.3718 2.5779 12.4773C2.47241 12.5827 2.41315 12.7258 2.41315 12.875C2.41315 13.0242 2.47241 13.1673 2.5779 13.2727C2.68339 13.3782 2.82646 13.4375 2.97565 13.4375H5.78815V14.5625C5.78815 14.7117 5.84741 14.8548 5.9529 14.9602C6.05839 15.0657 6.20146 15.125 6.35065 15.125C6.49983 15.125 6.64291 15.0657 6.74839 14.9602C6.85388 14.8548 6.91315 14.7117 6.91315 14.5625V11.1875C6.91315 11.0383 6.85388 10.8952 6.74839 10.7898C6.64291 10.6843 6.49983 10.625 6.35065 10.625Z" fill="white"/>
</svg>
