<svg width="19" height="19" viewBox="0 0 19 19" fill="none" xmlns="http://www.w3.org/2000/svg">
<path d="M16.8132 13.7251L10.6643 3.0467C10.5107 2.78509 10.2913 2.56817 10.028 2.41745C9.76469 2.26673 9.46655 2.18744 9.16315 2.18744C8.85975 2.18744 8.56162 2.26673 8.2983 2.41745C8.03499 2.56817 7.81563 2.78509 7.66198 3.0467L1.51315 13.7251C1.36531 13.9781 1.2874 14.2659 1.2874 14.559C1.2874 14.852 1.36531 15.1398 1.51315 15.3929C1.66484 15.6561 1.88382 15.8742 2.14763 16.0248C2.41143 16.1754 2.71056 16.2531 3.01433 16.25H15.312C15.6155 16.2529 15.9143 16.175 16.1779 16.0244C16.4414 15.8738 16.6602 15.6559 16.8117 15.3929C16.9598 15.14 17.038 14.8522 17.0382 14.5592C17.0385 14.2661 16.9608 13.9782 16.8132 13.7251ZM15.8379 14.8297C15.7843 14.9211 15.7074 14.9967 15.6149 15.0485C15.5225 15.1004 15.418 15.1268 15.312 15.125H3.01433C2.90835 15.1268 2.80379 15.1004 2.71137 15.0485C2.61895 14.9967 2.54199 14.9211 2.48839 14.8297C2.43983 14.7475 2.41422 14.6537 2.41422 14.5583C2.41422 14.4628 2.43983 14.3691 2.48839 14.2869L8.63722 3.6085C8.6919 3.5175 8.76921 3.44219 8.86162 3.38991C8.95402 3.33764 9.05839 3.31016 9.16456 3.31016C9.27073 3.31016 9.37509 3.33764 9.4675 3.38991C9.55991 3.44219 9.63722 3.5175 9.6919 3.6085L15.8407 14.2869C15.8889 14.3693 15.914 14.4632 15.9135 14.5587C15.913 14.6541 15.8869 14.7477 15.8379 14.8297ZM8.60065 10.625V7.81249C8.60065 7.6633 8.65992 7.52023 8.76541 7.41474C8.8709 7.30925 9.01397 7.24999 9.16315 7.24999C9.31234 7.24999 9.45541 7.30925 9.5609 7.41474C9.66639 7.52023 9.72565 7.6633 9.72565 7.81249V10.625C9.72565 10.7742 9.66639 10.9172 9.5609 11.0227C9.45541 11.1282 9.31234 11.1875 9.16315 11.1875C9.01397 11.1875 8.8709 11.1282 8.76541 11.0227C8.65992 10.9172 8.60065 10.7742 8.60065 10.625ZM10.0069 13.1562C10.0069 13.3231 9.95742 13.4862 9.86471 13.625C9.77199 13.7638 9.64022 13.8719 9.48604 13.9358C9.33187 13.9996 9.16222 14.0163 8.99855 13.9838C8.83487 13.9512 8.68453 13.8709 8.56653 13.7529C8.44853 13.6349 8.36817 13.4845 8.33562 13.3208C8.30306 13.1572 8.31977 12.9875 8.38363 12.8333C8.44749 12.6792 8.55564 12.5474 8.69439 12.4547C8.83315 12.362 8.99628 12.3125 9.16315 12.3125C9.38693 12.3125 9.60154 12.4014 9.75977 12.5596C9.91801 12.7178 10.0069 12.9325 10.0069 13.1562Z" fill="white"/>
</svg>
