<svg width="19" height="19" viewBox="0 0 19 19" fill="none" xmlns="http://www.w3.org/2000/svg">
<path d="M14.6236 14.1645C14.6759 14.2168 14.7173 14.2788 14.7456 14.3471C14.7739 14.4154 14.7885 14.4886 14.7885 14.5625C14.7885 14.6364 14.7739 14.7096 14.7456 14.7779C14.7173 14.8462 14.6759 14.9082 14.6236 14.9605C14.5714 15.0127 14.5093 15.0542 14.441 15.0825C14.3727 15.1108 14.2996 15.1253 14.2256 15.1253C14.1517 15.1253 14.0786 15.1108 14.0103 15.0825C13.942 15.0542 13.8799 15.0127 13.8277 14.9605L9.16315 10.2952L4.49862 14.9605C4.39307 15.066 4.24991 15.1253 4.10065 15.1253C3.95138 15.1253 3.80823 15.066 3.70268 14.9605C3.59713 14.8549 3.53783 14.7118 3.53783 14.5625C3.53783 14.4132 3.59713 14.2701 3.70268 14.1645L8.36791 9.50001L3.70268 4.83548C3.59713 4.72993 3.53783 4.58677 3.53783 4.43751C3.53783 4.28824 3.59713 4.14509 3.70268 4.03954C3.80823 3.93399 3.95138 3.87469 4.10065 3.87469C4.24991 3.87469 4.39307 3.93399 4.49862 4.03954L9.16315 8.70477L13.8277 4.03954C13.9332 3.93399 14.0764 3.87469 14.2256 3.87469C14.3749 3.87469 14.5181 3.93399 14.6236 4.03954C14.7292 4.14509 14.7885 4.28824 14.7885 4.43751C14.7885 4.58677 14.7292 4.72993 14.6236 4.83548L9.95838 9.50001L14.6236 14.1645Z" fill="white"/>
</svg>
