<svg width="19" height="19" viewBox="0 0 19 19" fill="none" xmlns="http://www.w3.org/2000/svg">
<path d="M15.9131 14.5625H15.3506V3.3125C15.3506 3.16332 15.2914 3.02024 15.1859 2.91475C15.0804 2.80926 14.9373 2.75 14.7881 2.75H10.8506C10.7015 2.75 10.5584 2.80926 10.4529 2.91475C10.3474 3.02024 10.2881 3.16332 10.2881 3.3125V6.125H6.91315C6.76396 6.125 6.62089 6.18426 6.5154 6.28975C6.40991 6.39524 6.35065 6.53832 6.35065 6.6875V9.5H3.53815C3.38896 9.5 3.24589 9.55926 3.1404 9.66475C3.03491 9.77024 2.97565 9.91332 2.97565 10.0625V14.5625H2.41315C2.26396 14.5625 2.12089 14.6218 2.0154 14.7273C1.90991 14.8327 1.85065 14.9758 1.85065 15.125C1.85065 15.2742 1.90991 15.4173 2.0154 15.5227C2.12089 15.6282 2.26396 15.6875 2.41315 15.6875H15.9131C16.0623 15.6875 16.2054 15.6282 16.3109 15.5227C16.4164 15.4173 16.4756 15.2742 16.4756 15.125C16.4756 14.9758 16.4164 14.8327 16.3109 14.7273C16.2054 14.6218 16.0623 14.5625 15.9131 14.5625ZM11.4131 3.875H14.2256V14.5625H11.4131V3.875ZM7.47565 7.25H10.2881V14.5625H7.47565V7.25ZM4.10065 10.625H6.35065V14.5625H4.10065V10.625Z" fill="white"/>
</svg>
