<svg width="19" height="19" viewBox="0 0 19 19" fill="currentColor" xmlns="http://www.w3.org/2000/svg">
<g clip-path="url(#clip0_177_95)">
<path d="M10.8506 6.12499C10.8506 5.9758 10.9099 5.83273 11.0154 5.72724C11.1209 5.62175 11.264 5.56249 11.4131 5.56249H17.6007C17.7498 5.56249 17.8929 5.62175 17.9984 5.72724C18.1039 5.83273 18.1632 5.9758 18.1632 6.12499C18.1632 6.27417 18.1039 6.41724 17.9984 6.52273C17.8929 6.62822 17.7498 6.68749 17.6007 6.68749H11.4131C11.264 6.68749 11.1209 6.62822 11.0154 6.52273C10.9099 6.41724 10.8506 6.27417 10.8506 6.12499ZM17.6007 8.93749H11.4131C11.264 8.93749 11.1209 8.99675 11.0154 9.10224C10.9099 9.20773 10.8506 9.3508 10.8506 9.49999C10.8506 9.64917 10.9099 9.79224 11.0154 9.89773C11.1209 10.0032 11.264 10.0625 11.4131 10.0625H17.6007C17.7498 10.0625 17.8929 10.0032 17.9984 9.89773C18.1039 9.79224 18.1632 9.64917 18.1632 9.49999C18.1632 9.3508 18.1039 9.20773 17.9984 9.10224C17.8929 8.99675 17.7498 8.93749 17.6007 8.93749ZM17.6007 12.3125H13.1006C12.9515 12.3125 12.8084 12.3717 12.7029 12.4772C12.5974 12.5827 12.5381 12.7258 12.5381 12.875C12.5381 13.0242 12.5974 13.1672 12.7029 13.2727C12.8084 13.3782 12.9515 13.4375 13.1006 13.4375H17.6007C17.7498 13.4375 17.8929 13.3782 17.9984 13.2727C18.1039 13.1672 18.1632 13.0242 18.1632 12.875C18.1632 12.7258 18.1039 12.5827 17.9984 12.4772C17.8929 12.3717 17.7498 12.3125 17.6007 12.3125ZM10.8331 13.8594C10.8515 13.9309 10.8556 14.0054 10.8452 14.0786C10.8348 14.1517 10.8101 14.2221 10.7724 14.2857C10.7348 14.3493 10.6851 14.4048 10.626 14.4492C10.5669 14.4936 10.4996 14.5258 10.4281 14.5442C10.3822 14.5566 10.3349 14.5627 10.2874 14.5625C10.1627 14.5625 10.0415 14.5211 9.94282 14.4448C9.84417 14.3684 9.77371 14.2614 9.74253 14.1406C9.3094 12.4573 7.60924 11.1875 5.78745 11.1875C3.96565 11.1875 2.26549 12.4566 1.83237 14.1406C1.79507 14.2851 1.70189 14.4089 1.57333 14.4847C1.44476 14.5606 1.29134 14.5822 1.14682 14.5449C1.0023 14.5076 0.878512 14.4144 0.802692 14.2859C0.726871 14.1573 0.705229 14.0039 0.742525 13.8594C1.13557 12.3329 2.27815 11.0968 3.72799 10.4844C3.16973 10.0544 2.76006 9.46043 2.55643 8.78584C2.35281 8.11124 2.36543 7.38983 2.59255 6.72277C2.81966 6.05572 3.24987 5.47648 3.82284 5.06629C4.3958 4.65611 5.08279 4.43555 5.78745 4.43555C6.49211 4.43555 7.17909 4.65611 7.75206 5.06629C8.32502 5.47648 8.75523 6.05572 8.98234 6.72277C9.20946 7.38983 9.22209 8.11124 9.01846 8.78584C8.81483 9.46043 8.40516 10.0544 7.8469 10.4844C9.29745 11.0968 10.44 12.3329 10.8331 13.8594ZM5.78815 10.0625C6.23316 10.0625 6.66817 9.93053 7.03818 9.68329C7.40819 9.43606 7.69658 9.08466 7.86688 8.67352C8.03718 8.26239 8.08173 7.80999 7.99492 7.37353C7.9081 6.93707 7.69381 6.53616 7.37914 6.22149C7.06447 5.90683 6.66356 5.69253 6.2271 5.60572C5.79065 5.5189 5.33825 5.56346 4.92711 5.73376C4.51598 5.90405 4.16458 6.19244 3.91734 6.56245C3.67011 6.93246 3.53815 7.36748 3.53815 7.81249C3.53815 8.40922 3.7752 8.98152 4.19716 9.40348C4.61912 9.82543 5.19141 10.0625 5.78815 10.0625Z" fill="currentColor"/>
</g>
<defs>
<clipPath id="clip0_177_95">
<rect width="18" height="18" fill="currentColor" transform="translate(0.163147 0.5)"/>
</clipPath>
</defs>
</svg>
