<svg width="17" height="19" viewBox="0 0 17 19" fill="none" xmlns="http://www.w3.org/2000/svg">
<path d="M14.0891 6.83333H11.7187V5.05556C11.7187 4.11256 11.3441 3.20819 10.6773 2.5414C10.0105 1.8746 9.10614 1.5 8.16314 1.5C7.22015 1.5 6.31578 1.8746 5.64899 2.5414C4.98219 3.20819 4.60759 4.11256 4.60759 5.05556V6.83333H2.23722C1.92289 6.83333 1.62143 6.9582 1.39917 7.18047C1.1769 7.40273 1.05203 7.70419 1.05203 8.01852V16.3148C1.05203 16.6291 1.1769 16.9306 1.39917 17.1529C1.62143 17.3751 1.92289 17.5 2.23722 17.5H14.0891C14.4034 17.5 14.7049 17.3751 14.9271 17.1529C15.1494 16.9306 15.2743 16.6291 15.2743 16.3148V8.01852C15.2743 7.70419 15.1494 7.40273 14.9271 7.18047C14.7049 6.9582 14.4034 6.83333 14.0891 6.83333ZM5.79277 5.05556C5.79277 4.42689 6.04251 3.82398 6.48704 3.37945C6.93157 2.93492 7.53448 2.68519 8.16314 2.68519C8.7918 2.68519 9.39472 2.93492 9.83925 3.37945C10.2838 3.82398 10.5335 4.42689 10.5335 5.05556V6.83333H5.79277V5.05556ZM14.0891 16.3148H2.23722V8.01852H14.0891V16.3148ZM9.05203 12.1667C9.05203 12.3425 8.9999 12.5143 8.90223 12.6605C8.80456 12.8067 8.66573 12.9206 8.50331 12.9879C8.34088 13.0552 8.16216 13.0728 7.98973 13.0385C7.8173 13.0042 7.65892 12.9195 7.5346 12.7952C7.41029 12.6709 7.32563 12.5125 7.29133 12.3401C7.25704 12.1677 7.27464 11.9889 7.34192 11.8265C7.4092 11.6641 7.52313 11.5253 7.6693 11.4276C7.81548 11.3299 7.98734 11.2778 8.16314 11.2778C8.39889 11.2778 8.62498 11.3714 8.79168 11.5381C8.95838 11.7048 9.05203 11.9309 9.05203 12.1667Z" fill="white"/>
</svg>
