<svg width="19" height="19" viewBox="0 0 19 19" fill="none" xmlns="http://www.w3.org/2000/svg">
<path d="M16.4665 8.51565L4.654 1.77339C4.45475 1.66122 4.22606 1.61243 3.99838 1.63352C3.7707 1.6546 3.55485 1.74457 3.37959 1.89142C3.20433 2.03827 3.07798 2.23504 3.01737 2.45551C2.95676 2.67599 2.96477 2.90969 3.04033 3.1255L5.194 9.50003L3.04033 15.8753C2.9804 16.0449 2.96202 16.2265 2.98675 16.4047C3.01148 16.5829 3.0786 16.7526 3.18246 16.8995C3.28633 17.0464 3.42392 17.1662 3.58368 17.249C3.74344 17.3317 3.92072 17.375 4.10064 17.375C4.29611 17.3746 4.48817 17.3238 4.65822 17.2274L16.4651 10.4739C16.6392 10.3763 16.7843 10.2342 16.8854 10.062C16.9865 9.88991 17.0399 9.69399 17.0403 9.49438C17.0406 9.29477 16.9879 9.09865 16.8874 8.92616C16.787 8.75367 16.6424 8.61102 16.4686 8.51284L16.4665 8.51565ZM4.10064 16.25C4.10095 16.2472 4.10095 16.2444 4.10064 16.2416L6.19174 10.0625H10.2881C10.4373 10.0625 10.5804 10.0033 10.6859 9.89778C10.7914 9.79229 10.8506 9.64921 10.8506 9.50003C10.8506 9.35084 10.7914 9.20777 10.6859 9.10228C10.5804 8.99679 10.4373 8.93753 10.2881 8.93753H6.19174L4.10486 2.76128C4.10417 2.7573 4.10274 2.75348 4.10064 2.75003L15.9131 9.48808L4.10064 16.25Z" fill="white"/>
</svg>
