<svg width="19" height="19" viewBox="0 0 19 19" fill="none" xmlns="http://www.w3.org/2000/svg">
<path d="M15.1861 7.64798L9.56112 13.273C9.50888 13.3253 9.44685 13.3668 9.37856 13.3951C9.31027 13.4234 9.23708 13.4379 9.16315 13.4379C9.08923 13.4379 9.01604 13.4234 8.94775 13.3951C8.87946 13.3668 8.81743 13.3253 8.76519 13.273L3.14019 7.64798C3.03464 7.54243 2.97534 7.39927 2.97534 7.25001C2.97534 7.10074 3.03464 6.95759 3.14019 6.85204C3.24573 6.74649 3.38889 6.68719 3.53815 6.68719C3.68742 6.68719 3.83058 6.74649 3.93612 6.85204L9.16315 12.0798L14.3902 6.85204C14.4424 6.79978 14.5045 6.75832 14.5728 6.73004C14.6411 6.70175 14.7142 6.68719 14.7882 6.68719C14.8621 6.68719 14.9353 6.70175 15.0035 6.73004C15.0718 6.75832 15.1339 6.79978 15.1861 6.85204C15.2384 6.9043 15.2798 6.96634 15.3081 7.03463C15.3364 7.10291 15.351 7.1761 15.351 7.25001C15.351 7.32392 15.3364 7.3971 15.3081 7.46539C15.2798 7.53367 15.2384 7.59571 15.1861 7.64798Z" fill="white"/>
</svg>
