<svg width="19" height="19" viewBox="0 0 19 19" fill="currentColor" xmlns="http://www.w3.org/2000/svg">
<path d="M15.8906 5.15115L9.70315 1.76561C9.53782 1.67426 9.35203 1.62634 9.16315 1.62634C8.97427 1.62634 8.78847 1.67426 8.62315 1.76561L2.43565 5.15256C2.25894 5.24924 2.11144 5.39159 2.00853 5.56475C1.90563 5.7379 1.8511 5.93551 1.85065 6.13694V12.8616C1.8511 13.063 1.90563 13.2607 2.00853 13.4338C2.11144 13.607 2.25894 13.7493 2.43565 13.846L8.62315 17.233C8.78847 17.3243 8.97427 17.3722 9.16315 17.3722C9.35203 17.3722 9.53782 17.3243 9.70315 17.233L15.8906 13.846C16.0673 13.7493 16.2149 13.607 16.3178 13.4338C16.4207 13.2607 16.4752 13.063 16.4756 12.8616V6.13764C16.4756 5.93586 16.4212 5.73781 16.3183 5.56425C16.2154 5.39069 16.0677 5.24801 15.8906 5.15115ZM9.16315 2.74998L14.8121 5.84373L12.7189 6.98983L7.06924 3.89608L9.16315 2.74998ZM9.16315 8.93748L3.51424 5.84373L5.89783 4.53873L11.5467 7.63248L9.16315 8.93748ZM2.97565 6.82811L8.60065 9.90639V15.9385L2.97565 12.8623V6.82811ZM15.3506 12.8595L9.72565 15.9385V9.9092L11.9756 8.67803V11.1875C11.9756 11.3367 12.0349 11.4797 12.1404 11.5852C12.2459 11.6907 12.389 11.75 12.5381 11.75C12.6873 11.75 12.8304 11.6907 12.9359 11.5852C13.0414 11.4797 13.1006 11.3367 13.1006 11.1875V8.06209L15.3506 6.82811V12.8588V12.8595Z" fill="currentColor"/>
</svg>
