<svg width="19" height="19" viewBox="0 0 19 19" fill="none" xmlns="http://www.w3.org/2000/svg">
<path d="M9.72565 6.12502V9.18151L12.2653 10.7052C12.3933 10.782 12.4854 10.9065 12.5216 11.0513C12.5577 11.1961 12.5348 11.3493 12.458 11.4772C12.3812 11.6051 12.2567 11.6973 12.1119 11.7334C11.9671 11.7696 11.8139 11.7467 11.686 11.6699L8.87346 9.98236C8.79022 9.93235 8.72134 9.86164 8.67353 9.77712C8.62573 9.69259 8.60062 9.59713 8.60065 9.50002V6.12502C8.60065 5.97584 8.65991 5.83276 8.7654 5.72727C8.87089 5.62178 9.01396 5.56252 9.16315 5.56252C9.31233 5.56252 9.45541 5.62178 9.56089 5.72727C9.66638 5.83276 9.72565 5.97584 9.72565 6.12502ZM9.16315 2.75002C8.2758 2.74781 7.39683 2.92161 6.57709 3.26135C5.75736 3.6011 5.01315 4.10004 4.38752 4.72932C3.87635 5.24682 3.42213 5.74463 2.97565 6.26565V5.00002C2.97565 4.85084 2.91638 4.70776 2.81089 4.60227C2.70541 4.49678 2.56233 4.43752 2.41315 4.43752C2.26396 4.43752 2.12089 4.49678 2.0154 4.60227C1.90991 4.70776 1.85065 4.85084 1.85065 5.00002V7.81252C1.85065 7.96171 1.90991 8.10478 2.0154 8.21027C2.12089 8.31576 2.26396 8.37502 2.41315 8.37502H5.22565C5.37483 8.37502 5.51791 8.31576 5.62339 8.21027C5.72888 8.10478 5.78815 7.96171 5.78815 7.81252C5.78815 7.66334 5.72888 7.52026 5.62339 7.41477C5.51791 7.30928 5.37483 7.25002 5.22565 7.25002H3.60846C4.11119 6.65799 4.61182 6.10041 5.18276 5.52244C5.96453 4.74067 6.95935 4.20662 8.04291 3.98701C9.12647 3.76741 10.2507 3.87198 11.2752 4.28767C12.2996 4.70337 13.1789 5.41175 13.8031 6.32429C14.4272 7.23684 14.7686 8.31309 14.7846 9.41856C14.8006 10.524 14.4905 11.6097 13.893 12.5399C13.2955 13.4702 12.4371 14.2037 11.4251 14.6488C10.4131 15.094 9.2923 15.231 8.20284 15.0429C7.11338 14.8547 6.10353 14.3496 5.29948 13.5908C5.24574 13.54 5.18252 13.5003 5.11344 13.474C5.04435 13.4476 4.97076 13.4351 4.89685 13.4372C4.82294 13.4393 4.75016 13.4559 4.68268 13.4861C4.61519 13.5164 4.55432 13.5596 4.50354 13.6133C4.45275 13.667 4.41305 13.7303 4.3867 13.7993C4.36034 13.8684 4.34785 13.942 4.34994 14.0159C4.35203 14.0898 4.36866 14.1626 4.39887 14.2301C4.42909 14.2976 4.4723 14.3585 4.52604 14.4092C5.32721 15.1653 6.30125 15.7138 7.36315 16.0068C8.42505 16.2998 9.54252 16.3285 10.6181 16.0904C11.6936 15.8522 12.6945 15.3545 13.5334 14.6405C14.3723 13.9266 15.0238 13.0182 15.4309 11.9946C15.838 10.971 15.9884 9.86329 15.869 8.7682C15.7495 7.6731 15.3639 6.62388 14.7457 5.7121C14.1275 4.80032 13.2956 4.05369 12.3225 3.53737C11.3494 3.02105 10.2647 2.75074 9.16315 2.75002Z" fill="white"/>
</svg>
