<svg width="19" height="19" viewBox="0 0 19 19" fill="currentColor" xmlns="http://www.w3.org/2000/svg">
<path d="M15.4867 7.89461L9.86168 2.26961C9.65072 2.05879 9.36468 1.94037 9.06644 1.94037C8.7682 1.94037 8.48217 2.05879 8.27121 2.26961L2.64621 7.89461C2.54124 7.99881 2.45802 8.12283 2.40141 8.25947C2.3448 8.39611 2.31592 8.54265 2.31644 8.69055V15.4405C2.31644 15.5897 2.37571 15.7328 2.4812 15.8383C2.58669 15.9438 2.72976 16.003 2.87894 16.003H7.37894C7.52813 16.003 7.6712 15.9438 7.77669 15.8383C7.88218 15.7328 7.94144 15.5897 7.94144 15.4405V11.503H10.1914V15.4405C10.1914 15.5897 10.2507 15.7328 10.3562 15.8383C10.4617 15.9438 10.6048 16.003 10.7539 16.003H15.2539C15.4031 16.003 15.5462 15.9438 15.6517 15.8383C15.7572 15.7328 15.8164 15.5897 15.8164 15.4405V8.69055C15.817 8.54265 15.7881 8.39611 15.7315 8.25947C15.6749 8.12283 15.5917 7.99881 15.4867 7.89461ZM14.6914 14.878H11.3164V10.9405C11.3164 10.7914 11.2572 10.6483 11.1517 10.5428C11.0462 10.4373 10.9031 10.3781 10.7539 10.3781H7.37894C7.22976 10.3781 7.08669 10.4373 6.9812 10.5428C6.87571 10.6483 6.81644 10.7914 6.81644 10.9405V14.878H3.44144V8.69055L9.06644 3.06555L14.6914 8.69055V14.878Z" fill="currentColor"/>
</svg>
