<svg width="19" height="19" viewBox="0 0 19 19" fill="none" xmlns="http://www.w3.org/2000/svg">
<path d="M15.2571 5.5625H14.2256V3.3125C14.2256 3.16332 14.1664 3.02024 14.0609 2.91475C13.9554 2.80926 13.8123 2.75 13.6631 2.75H4.66315C4.51396 2.75 4.37089 2.80926 4.2654 2.91475C4.15991 3.02024 4.10065 3.16332 4.10065 3.3125V5.5625H3.06916C2.0869 5.5625 1.28815 6.31977 1.28815 7.25V12.875C1.28815 13.0242 1.34741 13.1673 1.4529 13.2727C1.55839 13.3782 1.70146 13.4375 1.85065 13.4375H4.10065V15.6875C4.10065 15.8367 4.15991 15.9798 4.2654 16.0852C4.37089 16.1907 4.51396 16.25 4.66315 16.25H13.6631C13.8123 16.25 13.9554 16.1907 14.0609 16.0852C14.1664 15.9798 14.2256 15.8367 14.2256 15.6875V13.4375H16.4756C16.6248 13.4375 16.7679 13.3782 16.8734 13.2727C16.9789 13.1673 17.0381 13.0242 17.0381 12.875V7.25C17.0381 6.31977 16.2394 5.5625 15.2571 5.5625ZM5.22565 3.875H13.1006V5.5625H5.22565V3.875ZM13.1006 15.125H5.22565V11.75H13.1006V15.125ZM15.9131 12.3125H14.2256V11.1875C14.2256 11.0383 14.1664 10.8952 14.0609 10.7898C13.9554 10.6843 13.8123 10.625 13.6631 10.625H4.66315C4.51396 10.625 4.37089 10.6843 4.2654 10.7898C4.15991 10.8952 4.10065 11.0383 4.10065 11.1875V12.3125H2.41315V7.25C2.41315 6.93992 2.70776 6.6875 3.06916 6.6875H15.2571C15.6185 6.6875 15.9131 6.93992 15.9131 7.25V12.3125ZM14.2256 8.65625C14.2256 8.82313 14.1762 8.98626 14.0834 9.12501C13.9907 9.26377 13.859 9.37191 13.7048 9.43577C13.5506 9.49963 13.381 9.51634 13.2173 9.48379C13.0536 9.45123 12.9033 9.37087 12.7853 9.25287C12.6673 9.13487 12.5869 8.98453 12.5544 8.82086C12.5218 8.65719 12.5385 8.48754 12.6024 8.33336C12.6662 8.17919 12.7744 8.04741 12.9131 7.9547C13.0519 7.86198 13.215 7.8125 13.3819 7.8125C13.6057 7.8125 13.8203 7.90139 13.9785 8.05963C14.1368 8.21786 14.2256 8.43247 14.2256 8.65625Z" fill="white"/>
</svg>
