<svg width="19" height="19" viewBox="0 0 19 19" fill="currentColor" xmlns="http://www.w3.org/2000/svg">
<path d="M2.1319 9.5C1.98271 9.5 1.83964 9.44074 1.73415 9.33525C1.62866 9.22976 1.5694 9.08668 1.5694 8.9375C1.5694 8.78832 1.62866 8.64524 1.73415 8.53975C1.83964 8.43426 1.98271 8.375 2.1319 8.375H4.10065C4.24983 8.375 4.39291 8.31574 4.49839 8.21025C4.60388 8.10476 4.66315 7.96168 4.66315 7.8125C4.66315 7.66332 4.60388 7.52024 4.49839 7.41475C4.39291 7.30926 4.24983 7.25 4.10065 7.25H2.97565C2.52809 7.25 2.09887 7.07221 1.7824 6.75574C1.46594 6.43928 1.28815 6.01005 1.28815 5.5625C1.28815 5.11495 1.46594 4.68572 1.7824 4.36926C2.09887 4.05279 2.52809 3.875 2.97565 3.875C2.97565 3.72582 3.03491 3.58274 3.1404 3.47725C3.24589 3.37176 3.38896 3.3125 3.53815 3.3125C3.68733 3.3125 3.83041 3.37176 3.93589 3.47725C4.04138 3.58274 4.10065 3.72582 4.10065 3.875H4.66315C4.81233 3.875 4.95541 3.93426 5.06089 4.03975C5.16638 4.14524 5.22565 4.28832 5.22565 4.4375C5.22565 4.58668 5.16638 4.72976 5.06089 4.83525C4.95541 4.94074 4.81233 5 4.66315 5H2.97565C2.82646 5 2.68339 5.05926 2.5779 5.16475C2.47241 5.27024 2.41315 5.41332 2.41315 5.5625C2.41315 5.71168 2.47241 5.85476 2.5779 5.96025C2.68339 6.06574 2.82646 6.125 2.97565 6.125H4.10065C4.5482 6.125 4.97742 6.30279 5.29389 6.61926C5.61036 6.93572 5.78815 7.36495 5.78815 7.8125C5.78815 8.26005 5.61036 8.68928 5.29389 9.00574C4.97742 9.32221 4.5482 9.5 4.10065 9.5C4.10065 9.64918 4.04138 9.79226 3.93589 9.89775C3.83041 10.0032 3.68733 10.0625 3.53815 10.0625C3.38896 10.0625 3.24589 10.0032 3.1404 9.89775C3.03491 9.79226 2.97565 9.64918 2.97565 9.5H2.1319ZM16.4756 4.4375V14C16.4756 14.2984 16.3571 14.5845 16.1461 14.7955C15.9352 15.0065 15.649 15.125 15.3506 15.125H2.97565C2.67728 15.125 2.39113 15.0065 2.18015 14.7955C1.96917 14.5845 1.85065 14.2984 1.85065 14V11.1875C1.85065 11.0383 1.90991 10.8952 2.0154 10.7898C2.12089 10.6843 2.26396 10.625 2.41315 10.625C2.56233 10.625 2.70541 10.6843 2.81089 10.7898C2.91638 10.8952 2.97565 11.0383 2.97565 11.1875V14H11.4131V11.75H5.78815C5.63896 11.75 5.49589 11.6907 5.3904 11.5852C5.28491 11.4798 5.22565 11.3367 5.22565 11.1875C5.22565 11.0383 5.28491 10.8952 5.3904 10.7898C5.49589 10.6843 5.63896 10.625 5.78815 10.625H11.4131V8.375H7.47565C7.32646 8.375 7.18339 8.31574 7.0779 8.21025C6.97241 8.10476 6.91315 7.96168 6.91315 7.8125C6.91315 7.66332 6.97241 7.52024 7.0779 7.41475C7.18339 7.30926 7.32646 7.25 7.47565 7.25H15.3506V5H6.91315C6.76396 5 6.62089 4.94074 6.5154 4.83525C6.40991 4.72976 6.35065 4.58668 6.35065 4.4375C6.35065 4.28832 6.40991 4.14524 6.5154 4.03975C6.62089 3.93426 6.76396 3.875 6.91315 3.875H15.9131C16.0623 3.875 16.2054 3.93426 16.3109 4.03975C16.4164 4.14524 16.4756 4.28832 16.4756 4.4375ZM12.5381 10.625H15.3506V8.375H12.5381V10.625ZM15.3506 14V11.75H12.5381V14H15.3506Z" fill="currentColor"/>
</svg>
