<svg width="19" height="19" viewBox="0 0 19 19" fill="none" xmlns="http://www.w3.org/2000/svg">
<path d="M16.3111 15.852L12.7906 12.3322C13.811 11.1071 14.3198 9.53583 14.2112 7.94518C14.1026 6.35453 13.3849 4.86699 12.2075 3.79199C11.0301 2.71699 9.48352 2.13731 7.88958 2.17354C6.29564 2.20976 4.77703 2.8591 3.64965 3.98648C2.52227 5.11386 1.87293 6.63247 1.83671 8.22641C1.80048 9.82035 2.38016 11.3669 3.45516 12.5443C4.53016 13.7218 6.0177 14.4394 7.60835 14.548C9.199 14.6566 10.7703 14.1478 11.9953 13.1274L15.5152 16.6479C15.5674 16.7002 15.6295 16.7417 15.6978 16.7699C15.7661 16.7982 15.8392 16.8128 15.9131 16.8128C15.9871 16.8128 16.0602 16.7982 16.1285 16.7699C16.1968 16.7417 16.2589 16.7002 16.3111 16.6479C16.3634 16.5957 16.4048 16.5336 16.4331 16.4654C16.4614 16.3971 16.476 16.3239 16.476 16.25C16.476 16.1761 16.4614 16.1029 16.4331 16.0346C16.4048 15.9663 16.3634 15.9043 16.3111 15.852ZM2.97565 8.37498C2.97565 7.37371 3.27256 6.39493 3.82883 5.5624C4.38511 4.72988 5.17576 4.08101 6.10081 3.69784C7.02586 3.31467 8.04376 3.21441 9.02579 3.40975C10.0078 3.60509 10.9099 4.08725 11.6179 4.79525C12.3259 5.50325 12.808 6.4053 13.0034 7.38733C13.1987 8.36936 13.0985 9.38726 12.7153 10.3123C12.3321 11.2374 11.6832 12.028 10.8507 12.5843C10.0182 13.1406 9.03941 13.4375 8.03815 13.4375C6.69595 13.436 5.40914 12.9021 4.46006 11.9531C3.51098 11.004 2.97714 9.71718 2.97565 8.37498Z" fill="white"/>
</svg>
