<svg width="19" height="19" viewBox="0 0 19 19" fill="none" xmlns="http://www.w3.org/2000/svg">
<path d="M15.9132 9.50001C15.9132 9.64919 15.8539 9.79227 15.7484 9.89776C15.6429 10.0032 15.4998 10.0625 15.3507 10.0625H4.3334L8.43613 14.1645C8.48839 14.2168 8.52985 14.2788 8.55813 14.3471C8.58642 14.4154 8.60098 14.4886 8.60098 14.5625C8.60098 14.6364 8.58642 14.7096 8.55813 14.7779C8.52985 14.8462 8.48839 14.9082 8.43613 14.9605C8.38387 15.0127 8.32183 15.0542 8.25354 15.0825C8.18526 15.1108 8.11207 15.1253 8.03816 15.1253C7.96425 15.1253 7.89107 15.1108 7.82278 15.0825C7.7545 15.0542 7.69246 15.0127 7.64019 14.9605L2.57769 9.89798C2.52539 9.84574 2.4839 9.7837 2.4556 9.71541C2.42729 9.64713 2.41272 9.57393 2.41272 9.50001C2.41272 9.42609 2.42729 9.35289 2.4556 9.2846C2.4839 9.21632 2.52539 9.15428 2.57769 9.10204L7.64019 4.03954C7.74574 3.93399 7.8889 3.87469 8.03816 3.87469C8.18743 3.87469 8.33058 3.93399 8.43613 4.03954C8.54168 4.14509 8.60098 4.28824 8.60098 4.43751C8.60098 4.58677 8.54168 4.72993 8.43613 4.83548L4.3334 8.93751H15.3507C15.4998 8.93751 15.6429 8.99677 15.7484 9.10226C15.8539 9.20775 15.9132 9.35082 15.9132 9.50001Z" fill="white"/>
</svg>
