<svg width="19" height="19" viewBox="0 0 19 19" fill="none" xmlns="http://www.w3.org/2000/svg">
<path d="M16.5478 3.34613H1.77853C1.61532 3.34613 1.4588 3.41097 1.34339 3.52637C1.22798 3.64178 1.16315 3.7983 1.16315 3.96151V14.4231C1.16315 14.7495 1.29282 15.0625 1.52363 15.2933C1.75444 15.5242 2.0675 15.6538 2.39392 15.6538H15.9324C16.2588 15.6538 16.5718 15.5242 16.8027 15.2933C17.0335 15.0625 17.1631 14.7495 17.1631 14.4231V3.96151C17.1631 3.7983 17.0983 3.64178 16.9829 3.52637C16.8675 3.41097 16.711 3.34613 16.5478 3.34613ZM9.16315 9.89613L3.36084 4.5769H14.9655L9.16315 9.89613ZM6.91007 9.49998L2.39392 13.6392V5.36075L6.91007 9.49998ZM7.82084 10.3346L8.74392 11.1846C8.85745 11.2888 9.00595 11.3466 9.16007 11.3466C9.31419 11.3466 9.46269 11.2888 9.57622 11.1846L10.4993 10.3346L14.9608 14.4231H3.36084L7.82084 10.3346ZM11.4162 9.49998L15.9324 5.35998V13.64L11.4162 9.49998Z" fill="white"/>
</svg>
