<svg width="19" height="19" viewBox="0 0 19 19" fill="none" xmlns="http://www.w3.org/2000/svg">
<path d="M11.8111 14.727C11.8634 14.7793 11.9048 14.8413 11.9331 14.9096C11.9614 14.9779 11.976 15.0511 11.976 15.125C11.976 15.1989 11.9614 15.2721 11.9331 15.3404C11.9048 15.4087 11.8634 15.4707 11.8111 15.523C11.7589 15.5752 11.6968 15.6167 11.6285 15.645C11.5602 15.6733 11.4871 15.6878 11.4131 15.6878C11.3392 15.6878 11.2661 15.6733 11.1978 15.645C11.1295 15.6167 11.0674 15.5752 11.0152 15.523L5.39018 9.89798C5.33788 9.84574 5.29639 9.7837 5.26808 9.71541C5.23977 9.64713 5.2252 9.57393 5.2252 9.50001C5.2252 9.42609 5.23977 9.35289 5.26808 9.2846C5.29639 9.21632 5.33788 9.15428 5.39018 9.10204L11.0152 3.47704C11.1207 3.37149 11.2639 3.31219 11.4131 3.31219C11.5624 3.31219 11.7056 3.37149 11.8111 3.47704C11.9167 3.58259 11.976 3.72574 11.976 3.87501C11.976 4.02427 11.9167 4.16743 11.8111 4.27298L6.58338 9.50001L11.8111 14.727Z" fill="white"/>
</svg>
