<svg width="19" height="19" viewBox="0 0 19 19" fill="none" xmlns="http://www.w3.org/2000/svg">
<g clip-path="url(#clip0_478_1114)">
<path d="M9.41315 1.25C7.78145 1.25 6.1864 1.73385 4.8297 2.64038C3.47299 3.5469 2.41557 4.83537 1.79114 6.34286C1.16672 7.85035 1.00334 9.50915 1.32167 11.1095C1.64 12.7098 2.42574 14.1798 3.57952 15.3336C4.7333 16.4874 6.20331 17.2731 7.80365 17.5915C9.404 17.9098 11.0628 17.7464 12.5703 17.122C14.0778 16.4976 15.3663 15.4402 16.2728 14.0835C17.1793 12.7267 17.6631 11.1317 17.6631 9.5C17.6608 7.31267 16.7909 5.21559 15.2442 3.66892C13.6976 2.12225 11.6005 1.25231 9.41315 1.25ZM9.41315 16.4808C8.03248 16.4808 6.68282 16.0714 5.53484 15.3043C4.38686 14.5372 3.49212 13.447 2.96376 12.1714C2.4354 10.8959 2.29716 9.49225 2.56651 8.13812C2.83587 6.78398 3.50072 5.54013 4.477 4.56385C5.45328 3.58757 6.69713 2.92272 8.05127 2.65336C9.40541 2.38401 10.809 2.52225 12.0846 3.05061C13.3601 3.57897 14.4504 4.47371 15.2174 5.62169C15.9845 6.76967 16.3939 8.11933 16.3939 9.5C16.3918 11.3508 15.6557 13.1251 14.347 14.4338C13.0383 15.7425 11.2639 16.4787 9.41315 16.4808ZM13.2208 9.5C13.2208 9.66831 13.154 9.82973 13.035 9.94874C12.916 10.0678 12.7545 10.1346 12.5862 10.1346H10.0478V12.6731C10.0478 12.8414 9.9809 13.0028 9.86189 13.1218C9.74288 13.2408 9.58146 13.3077 9.41315 13.3077C9.24484 13.3077 9.08342 13.2408 8.96441 13.1218C8.8454 13.0028 8.77853 12.8414 8.77853 12.6731V10.1346H6.24007C6.07176 10.1346 5.91035 10.0678 5.79133 9.94874C5.67232 9.82973 5.60546 9.66831 5.60546 9.5C5.60546 9.33169 5.67232 9.17027 5.79133 9.05126C5.91035 8.93224 6.07176 8.86538 6.24007 8.86538H8.77853V6.32692C8.77853 6.15861 8.8454 5.99719 8.96441 5.87818C9.08342 5.75917 9.24484 5.69231 9.41315 5.69231C9.58146 5.69231 9.74288 5.75917 9.86189 5.87818C9.9809 5.99719 10.0478 6.15861 10.0478 6.32692V8.86538H12.5862C12.7545 8.86538 12.916 8.93224 13.035 9.05126C13.154 9.17027 13.2208 9.33169 13.2208 9.5Z" fill="white"/>
</g>
<defs>
<clipPath id="clip0_478_1114">
<rect x="0.413147" y="0.5" width="18" height="18" rx="5" fill="white"/>
</clipPath>
</defs>
</svg>
