<svg width="10" height="11" viewBox="0 0 10 11" fill="none" xmlns="http://www.w3.org/2000/svg">
<path d="M9.77396 8.21458C9.74579 8.26165 9.7086 8.3027 9.66453 8.33536C9.62046 8.36803 9.57037 8.39167 9.51714 8.40493C9.46391 8.41818 9.40859 8.4208 9.35435 8.41263C9.3001 8.40445 9.248 8.38565 9.20105 8.35729L5.66667 6.23594V10.0833C5.66667 10.1938 5.62277 10.2998 5.54463 10.378C5.46649 10.4561 5.36051 10.5 5.25 10.5C5.1395 10.5 5.03352 10.4561 4.95538 10.378C4.87724 10.2998 4.83334 10.1938 4.83334 10.0833V6.23594L1.29792 8.35729C1.25098 8.38613 1.19879 8.40537 1.14437 8.41391C1.08994 8.42244 1.03437 8.4201 0.980855 8.40701C0.927343 8.39393 0.876956 8.37037 0.83261 8.33768C0.788264 8.305 0.75084 8.26385 0.722502 8.2166C0.694164 8.16936 0.675475 8.11697 0.667517 8.06246C0.659559 8.00795 0.66249 7.9524 0.676139 7.89903C0.689789 7.84566 0.713886 7.79553 0.747037 7.75153C0.780189 7.70753 0.821735 7.67054 0.869274 7.64271L4.44011 5.5L0.869274 3.35729C0.821735 3.32946 0.780189 3.29247 0.747037 3.24847C0.713886 3.20447 0.689789 3.15434 0.676139 3.10097C0.66249 3.0476 0.659559 2.99205 0.667517 2.93754C0.675475 2.88303 0.694164 2.83064 0.722502 2.7834C0.75084 2.73615 0.788264 2.695 0.83261 2.66232C0.876956 2.62963 0.927343 2.60607 0.980855 2.59299C1.03437 2.5799 1.08994 2.57756 1.14437 2.5861C1.19879 2.59463 1.25098 2.61387 1.29792 2.64271L4.83334 4.76406V0.916667C4.83334 0.80616 4.87724 0.700179 4.95538 0.622039C5.03352 0.543899 5.1395 0.5 5.25 0.5C5.36051 0.5 5.46649 0.543899 5.54463 0.622039C5.62277 0.700179 5.66667 0.80616 5.66667 0.916667V4.76406L9.20209 2.64271C9.24903 2.61387 9.30122 2.59463 9.35564 2.5861C9.41006 2.57756 9.46564 2.5799 9.51915 2.59299C9.57266 2.60607 9.62305 2.62963 9.6674 2.66232C9.71174 2.695 9.74917 2.73615 9.7775 2.7834C9.80584 2.83064 9.82453 2.88303 9.83249 2.93754C9.84045 2.99205 9.83752 3.0476 9.82387 3.10097C9.81022 3.15434 9.78612 3.20447 9.75297 3.24847C9.71982 3.29247 9.67827 3.32946 9.63073 3.35729L6.0599 5.5L9.63073 7.64271C9.67771 7.67083 9.71868 7.70794 9.7513 7.75191C9.78393 7.79588 9.80757 7.84585 9.82087 7.89896C9.83417 7.95207 9.83687 8.00728 9.82882 8.06144C9.82078 8.1156 9.80213 8.16764 9.77396 8.21458Z" fill="#FF0000" fill-opacity="0.75"/>
</svg>
