<svg width="19" height="19" viewBox="0 0 19 19" fill="none" xmlns="http://www.w3.org/2000/svg">
<path d="M15.9131 9.5C15.9131 9.64918 15.8539 9.79226 15.7484 9.89775C15.6429 10.0032 15.4998 10.0625 15.3506 10.0625H9.72565V15.6875C9.72565 15.8367 9.66638 15.9798 9.56089 16.0852C9.45541 16.1907 9.31233 16.25 9.16315 16.25C9.01396 16.25 8.87089 16.1907 8.7654 16.0852C8.65991 15.9798 8.60065 15.8367 8.60065 15.6875V10.0625H2.97565C2.82646 10.0625 2.68339 10.0032 2.5779 9.89775C2.47241 9.79226 2.41315 9.64918 2.41315 9.5C2.41315 9.35082 2.47241 9.20774 2.5779 9.10225C2.68339 8.99676 2.82646 8.9375 2.97565 8.9375H8.60065V3.3125C8.60065 3.16332 8.65991 3.02024 8.7654 2.91475C8.87089 2.80926 9.01396 2.75 9.16315 2.75C9.31233 2.75 9.45541 2.80926 9.56089 2.91475C9.66638 3.02024 9.72565 3.16332 9.72565 3.3125V8.9375H15.3506C15.4998 8.9375 15.6429 8.99676 15.7484 9.10225C15.8539 9.20774 15.9131 9.35082 15.9131 9.5Z" fill="white"/>
</svg>
