<svg width="19" height="19" viewBox="0 0 19 19" fill="none" xmlns="http://www.w3.org/2000/svg">
<path d="M9.16315 2.1875C7.71687 2.1875 6.30308 2.61637 5.10054 3.41988C3.89801 4.22339 2.96075 5.36544 2.40728 6.70163C1.85382 8.03781 1.709 9.50811 1.99116 10.9266C2.27331 12.3451 2.96976 13.648 3.99243 14.6707C5.0151 15.6934 6.31807 16.3898 7.73655 16.672C9.15504 16.9541 10.6253 16.8093 11.9615 16.2559C13.2977 15.7024 14.4398 14.7651 15.2433 13.5626C16.0468 12.3601 16.4756 10.9463 16.4756 9.5C16.4736 7.56123 15.7025 5.70246 14.3316 4.33154C12.9607 2.96063 11.1019 2.18955 9.16315 2.1875ZM5.3719 14.3867C5.77882 13.7503 6.3394 13.2266 7.00197 12.8638C7.66454 12.501 8.40777 12.3109 9.16315 12.3109C9.91853 12.3109 10.6618 12.501 11.3243 12.8638C11.9869 13.2266 12.5475 13.7503 12.9544 14.3867C11.8704 15.2298 10.5364 15.6875 9.16315 15.6875C7.78993 15.6875 6.45588 15.2298 5.3719 14.3867ZM6.91315 8.9375C6.91315 8.49249 7.04511 8.05748 7.29234 7.68747C7.53958 7.31746 7.89098 7.02907 8.30211 6.85877C8.71325 6.68847 9.16565 6.64392 9.6021 6.73073C10.0386 6.81755 10.4395 7.03184 10.7541 7.34651C11.0688 7.66118 11.2831 8.06209 11.3699 8.49855C11.4567 8.935 11.4122 9.3874 11.2419 9.79854C11.0716 10.2097 10.7832 10.5611 10.4132 10.8083C10.0432 11.0555 9.60816 11.1875 9.16315 11.1875C8.56641 11.1875 7.99412 10.9504 7.57216 10.5285C7.1502 10.1065 6.91315 9.53424 6.91315 8.9375ZM13.7869 13.607C13.1595 12.6979 12.2774 11.9946 11.2514 11.5855C11.8026 11.1514 12.2047 10.5564 12.402 9.88313C12.5992 9.2099 12.5818 8.49192 12.3521 7.82906C12.1224 7.16619 11.6919 6.59137 11.1203 6.18455C10.5488 5.77772 9.86469 5.55911 9.16315 5.55911C8.46161 5.55911 7.77751 5.77772 7.20598 6.18455C6.63444 6.59137 6.20389 7.16619 5.97419 7.82906C5.74449 8.49192 5.72706 9.2099 5.92433 9.88313C6.12159 10.5564 6.52375 11.1514 7.07487 11.5855C6.04888 11.9946 5.16675 12.6979 4.5394 13.607C3.74667 12.7155 3.22854 11.6139 3.0474 10.4348C2.86626 9.2557 3.02982 8.04938 3.5184 6.96108C4.00699 5.87279 4.79975 4.94894 5.80123 4.30077C6.80271 3.6526 7.97022 3.30775 9.16315 3.30775C10.3561 3.30775 11.5236 3.6526 12.5251 4.30077C13.5266 4.94894 14.3193 5.87279 14.8079 6.96108C15.2965 8.04938 15.46 9.2557 15.2789 10.4348C15.0978 11.6139 14.5796 12.7155 13.7869 13.607Z" fill="white"/>
</svg>
