<svg width="181" height="54" viewBox="0 0 181 54" fill="none" xmlns="http://www.w3.org/2000/svg">
<g clip-path="url(#clip0_508_2084)">
<circle cx="27" cy="27" r="25" stroke="black" stroke-width="4"/>
<path fill-rule="evenodd" clip-rule="evenodd" d="M25 45V9H21V45H25ZM32 45V9H28V45H32Z" fill="black"/>
<path d="M28.2036 37.0159C29.8426 37.0159 31.2731 36.7931 32.4952 36.3474C33.7316 35.8873 34.6301 35.4345 35.1908 34.9888L37.1317 38.8705C36.4848 39.4456 35.3562 40.0279 33.746 40.6173C32.1357 41.2068 30.2092 41.5015 27.9664 41.5015C25.8674 41.5015 23.9121 41.1277 22.1006 40.3801C20.2891 39.6325 18.7005 38.5974 17.3347 37.2747C15.9688 35.9376 14.905 34.3777 14.143 32.595C13.381 30.8123 13 28.8786 13 26.7939C13 24.7092 13.381 22.7683 14.143 20.9712C14.905 19.1741 15.9617 17.607 17.3131 16.27C18.6789 14.9329 20.2676 13.8906 22.0791 13.143C23.9049 12.381 25.8674 12 27.9664 12C30.2092 12 32.1357 12.2947 33.746 12.8842C35.3562 13.4736 36.4848 14.0559 37.1317 14.631L35.1908 18.5128C34.6301 18.0671 33.7316 17.6214 32.4952 17.1757C31.2731 16.7156 29.8426 16.4856 28.2036 16.4856C26.6509 16.4856 25.242 16.7444 23.9768 17.262C22.7116 17.7795 21.6262 18.5056 20.7204 19.4401C19.8147 20.3746 19.1174 21.4672 18.6286 22.718C18.1398 23.9544 17.8954 25.2915 17.8954 26.7292C17.8954 28.1813 18.1398 29.5327 18.6286 30.7835C19.1174 32.0343 19.8147 33.127 20.7204 34.0615C21.6262 34.996 22.7116 35.722 23.9768 36.2396C25.242 36.7571 26.6509 37.0159 28.2036 37.0159Z" fill="black"/>
<path d="M62 12.0512H77.333V16.1055H66.5287V24.2357H76.5782V28.2684H66.5287V40.5176H62V12.0512Z" fill="black"/>
<path d="M91.3937 40V36.7221C91.2787 37.0671 90.948 37.5416 90.4017 38.1454C89.8698 38.7492 89.1365 39.2956 88.202 39.7844C87.2819 40.2732 86.1892 40.5176 84.9241 40.5176C83.2707 40.5176 81.7827 40.1222 80.46 39.3315C79.1373 38.5408 78.095 37.4409 77.333 36.032C76.5711 34.623 76.1901 32.9984 76.1901 31.1582C76.1901 29.3179 76.5711 27.6933 77.333 26.2844C78.095 24.8755 79.1373 23.7756 80.46 22.9849C81.7827 22.1798 83.2707 21.7772 84.9241 21.7772C86.1605 21.7772 87.2316 21.9929 88.1373 22.4242C89.0431 22.8555 89.7691 23.3515 90.3154 23.9122C90.8761 24.4729 91.2212 24.9617 91.3506 25.3787V22.2948H95.9225V40H91.3937ZM80.7404 31.1582C80.7404 32.294 80.992 33.286 81.4952 34.1342C81.9984 34.9825 82.6525 35.6366 83.4576 36.0967C84.2771 36.5567 85.1541 36.7868 86.0886 36.7868C87.095 36.7868 87.9864 36.5496 88.7627 36.0751C89.5535 35.6007 90.1717 34.9465 90.6174 34.1127C91.0774 33.2644 91.3074 32.2796 91.3074 31.1582C91.3074 30.0368 91.0774 29.0592 90.6174 28.2253C90.1717 27.3771 89.5535 26.7157 88.7627 26.2413C87.9864 25.7525 87.095 25.508 86.0886 25.508C85.1541 25.508 84.2771 25.7453 83.4576 26.2197C82.6525 26.6798 81.9984 27.3339 81.4952 28.1822C80.992 29.0304 80.7404 30.0224 80.7404 31.1582Z" fill="black"/>
<path d="M106.798 36.7868C107.819 36.7868 108.646 36.6214 109.278 36.2908C109.925 35.9457 110.342 35.6941 110.529 35.536L112.707 38.7708C112.535 38.9146 112.175 39.1302 111.629 39.4178C111.083 39.6909 110.386 39.9425 109.537 40.1725C108.703 40.4026 107.755 40.5176 106.691 40.5176C104.937 40.5176 103.341 40.151 101.903 39.4178C100.48 38.6701 99.3368 37.5991 98.4742 36.2045C97.6259 34.7956 97.2018 33.1063 97.2018 31.1366C97.2018 29.1526 97.6259 27.4633 98.4742 26.0687C99.3368 24.6742 100.48 23.6103 101.903 22.8771C103.341 22.1438 104.937 21.7772 106.691 21.7772C107.74 21.7772 108.675 21.8994 109.494 22.1438C110.328 22.3739 111.018 22.6398 111.564 22.9418C112.111 23.2437 112.477 23.4809 112.664 23.6534L110.443 26.8882C110.342 26.7876 110.134 26.6294 109.818 26.4138C109.516 26.1838 109.113 25.9753 108.61 25.7884C108.107 25.6015 107.503 25.508 106.798 25.508C105.936 25.508 105.109 25.7381 104.318 26.1981C103.528 26.6582 102.881 27.3123 102.378 28.1606C101.874 28.9945 101.623 29.9865 101.623 31.1366C101.623 32.2868 101.874 33.286 102.378 34.1342C102.881 34.9825 103.528 35.6366 104.318 36.0967C105.109 36.5567 105.936 36.7868 106.798 36.7868Z" fill="black"/>
<path d="M112.707 22.2948H116.028V15.0272H120.6V22.2948H124.978V26.1766H120.751L120.842 32.6202C120.842 33.5691 121.491 34.8354 121.807 35.3099C122.138 35.7843 121.873 36.5927 122.477 36.5927C122.98 36.5927 123.42 37.0099 123.707 36.823C124.009 36.6361 124.65 36.8949 124.707 36.823L125.905 39.2668C125.819 39.3531 125.624 40.5215 125.207 40.7228C124.813 40.7228 124.508 40.7228 123.786 40.7228C123.25 40.7228 122.707 40 121.707 40C120.212 40 118.263 37.3658 117.257 36.4744C116.599 35.212 116.2 33.6709 116.2 31.7731V26.1766H112.707V22.2948Z" fill="black"/>
<path d="M120.822 31.1909C120.822 32.9161 121.103 34.2891 121.807 35.3099C122.526 36.3306 123.655 36.841 125.193 36.841C126.746 36.841 127.874 36.3306 128.579 35.3099C129.283 34.2891 129.636 32.9161 129.636 31.1909V22.5H134.207V31.7731C134.207 33.5559 133.855 35.123 133.151 36.4744C132.446 37.8115 131.425 38.8538 130.088 39.6014C128.751 40.349 127.134 40.7228 125.207 40.7228C123.295 40.7228 122.044 40.7476 120.707 40C119.37 39.2524 117.961 37.8115 117.257 36.4744C116.552 35.123 116.2 33.5559 116.2 31.7731V22.5H120.751L120.822 31.1909Z" fill="black"/>
<path d="M161.207 12.151H171.667C173.234 12.151 174.65 12.4816 175.915 13.143C177.195 13.7899 178.208 14.7388 178.956 15.9896C179.703 17.2404 180.077 18.7572 180.077 20.5399C180.077 22.3083 179.739 23.7675 179.064 24.9177C178.388 26.0679 177.576 26.9305 176.627 27.5056C175.678 28.0806 174.794 28.4041 173.974 28.476L180.983 40.6173H175.872L169.402 28.821H165.736V40.6173H161.207V12.151ZM165.736 25.5431H170.049C171.573 25.5431 172.853 25.1621 173.888 24.4001C174.923 23.6382 175.441 22.3945 175.441 20.6693C175.441 18.9297 174.93 17.6933 173.909 16.9601C172.889 16.2268 171.616 15.8602 170.092 15.8602H165.736V25.5431Z" fill="black"/>
<path d="M150.911 37.0159C152.55 37.0159 153.981 36.7931 155.203 36.3474C156.439 35.8873 157.338 35.4345 157.898 34.9888L159.839 38.8705C159.192 39.4456 158.064 40.0279 156.453 40.6173C154.843 41.2068 152.917 41.5015 150.674 41.5015C148.575 41.5015 146.62 41.1277 144.808 40.3801C142.997 39.6325 141.408 38.5974 140.042 37.2747C138.676 35.9376 137.612 34.3777 136.85 32.595C136.088 30.8123 135.707 28.8786 135.707 26.7939C135.707 24.7092 136.088 22.7683 136.85 20.9712C137.612 19.1741 138.669 17.607 140.02 16.27C141.386 14.9329 142.975 13.8906 144.786 13.143C146.612 12.381 148.575 12 150.674 12C152.917 12 154.843 12.2947 156.453 12.8842C158.064 13.4736 159.192 14.0559 159.839 14.631L157.898 18.5128C157.338 18.0671 156.439 17.6214 155.203 17.1757C153.981 16.7156 152.55 16.4856 150.911 16.4856C149.358 16.4856 147.949 16.7444 146.684 17.262C145.419 17.7795 144.334 18.5056 143.428 19.4401C142.522 20.3746 141.825 21.4672 141.336 22.718C140.847 23.9544 140.603 25.2915 140.603 26.7292C140.603 28.1813 140.847 29.5327 141.336 30.7835C141.825 32.0343 142.522 33.127 143.428 34.0615C144.334 34.996 145.419 35.722 146.684 36.2396C147.949 36.7571 149.358 37.0159 150.911 37.0159Z" fill="black"/>
</g>
<defs>
<clipPath id="clip0_508_2084">
<rect width="180.983" height="54" fill="white"/>
</clipPath>
</defs>
</svg>
