<svg width="54" height="54" viewBox="0 0 54 54" fill="none" xmlns="http://www.w3.org/2000/svg">
<g clip-path="url(#clip0_507_2083)">
<path fill-rule="evenodd" clip-rule="evenodd" d="M25 9H21V13.6364C19.6297 14.3274 18.4007 15.2052 17.3131 16.27C15.9617 17.607 14.905 19.1741 14.143 20.9712C13.381 22.7683 13 24.7092 13 26.7939C13 28.8786 13.381 30.8123 14.143 32.595C14.905 34.3777 15.9688 35.9376 17.3347 37.2747C18.4166 38.3225 19.6384 39.1898 21 39.8767V45H25V41.2352C25.9547 41.4128 26.9435 41.5015 27.9664 41.5015C27.9776 41.5015 27.9888 41.5015 28 41.5015V45H32V41.1151C32.6183 40.983 33.2003 40.8171 33.746 40.6173C35.3562 40.0279 36.4848 39.4456 37.1317 38.8705L35.1908 34.9888C34.6301 35.4345 33.7316 35.8873 32.4952 36.3474C32.3337 36.4063 32.1687 36.4612 32 36.5123V17.0054C32.1687 17.0582 32.3337 17.1149 32.4952 17.1757C33.7316 17.6214 34.6301 18.0671 35.1908 18.5128L37.1317 14.631C36.4848 14.0559 35.3562 13.4736 33.746 12.8842C33.2003 12.6844 32.6183 12.5185 32 12.3865V9H28V12C27.9888 12 27.9776 12 27.9664 12C26.9453 12 25.9565 12.0902 25 12.2705V9ZM21 19.1637C20.905 19.2537 20.8118 19.3458 20.7204 19.4401C19.8147 20.3746 19.1174 21.4672 18.6286 22.718C18.1398 23.9544 17.8954 25.2915 17.8954 26.7292C17.8954 28.1813 18.1398 29.5327 18.6286 30.7835C19.1174 32.0343 19.8147 33.1269 20.7204 34.0615C20.8118 34.1557 20.905 34.2479 21 34.3379V19.1637ZM25 36.5928V16.9087C25.9307 16.6434 26.9307 16.5029 28 16.4871V37.0144C26.9307 36.9986 25.9307 36.8581 25 36.5928Z" fill="black"/>
<path fill-rule="evenodd" clip-rule="evenodd" d="M27 54C41.9117 54 54 41.9117 54 27C54 12.0883 41.9117 0 27 0C12.0883 0 0 12.0883 0 27C0 41.9117 12.0883 54 27 54ZM27 50C39.7025 50 50 39.7025 50 27C50 14.2975 39.7025 4 27 4C14.2975 4 4 14.2975 4 27C4 39.7025 14.2975 50 27 50Z" fill="black"/>
</g>
<defs>
<clipPath id="clip0_507_2083">
<rect width="54" height="54" fill="white"/>
</clipPath>
</defs>
</svg>
